<?xml version="1.0" encoding="utf-8"?>
<!-- Generator: Adobe Illustrator 22.0.1, SVG Export Plug-In . SVG Version: 6.00 Build 0)  -->
<svg version="1.1" id="Слой_1" xmlns="http://www.w3.org/2000/svg" xmlns:xlink="http://www.w3.org/1999/xlink" x="0px" y="0px"
	 viewBox="0 0 5.7 5.4" style="enable-background:new 0 0 5.7 5.4;" xml:space="preserve">
<style type="text/css">
	.st0{fill:#940029;}
	.st1{fill:#FFF1A8;}
	.st2{fill:#FFEA7A;}
	.st3{fill:#21265D;}
</style>
<rect x="3.2" y="3.6" class="st0" width="0.9" height="0.9"/>
<path class="st1" d="M4.7,0.3H0.3v4.5c0,0.3,0.2,0.5,0.5,0.5h4c0-0.1-0.1-0.2-0.1-0.3C4.7,3.4,4.7,1.8,4.7,0.3z M3.5,0.6h0.7
	c0.1,0,0.1,0.1,0.1,0.1c0,0.1-0.1,0.1-0.1,0.1H3.5c-0.1,0-0.1-0.1-0.1-0.1C3.4,0.7,3.5,0.6,3.5,0.6z M3,1.2h1.2
	c0.1,0,0.1,0.1,0.1,0.1S4.3,1.4,4.3,1.4H3C3,1.4,2.9,1.4,2.9,1.3S3,1.2,3,1.2z M3,1.7h1.2c0.1,0,0.1,0.1,0.1,0.1
	C4.4,1.9,4.3,2,4.3,2H3C3,2,2.9,1.9,2.9,1.8C2.9,1.8,3,1.7,3,1.7z M4.3,2.5H0.6c-0.1,0-0.1-0.1-0.1-0.1c0-0.1,0.1-0.1,0.1-0.1h3.6
	c0.1,0,0.1,0.1,0.1,0.1C4.4,2.5,4.3,2.5,4.3,2.5z M4.4,3c0,0.1-0.1,0.1-0.1,0.1H0.6C0.6,3.1,0.5,3,0.5,3c0-0.1,0.1-0.1,0.1-0.1h3.6
	C4.3,2.8,4.4,2.9,4.4,3z M0.5,0.8c0-0.1,0.1-0.2,0.2-0.2h1.8c0.1,0,0.2,0.1,0.2,0.2v1C2.7,1.9,2.6,2,2.5,2H0.7
	C0.6,2,0.5,1.9,0.5,1.8V0.8z M2,4.8H0.6c-0.1,0-0.1-0.1-0.1-0.1s0.1-0.1,0.1-0.1H2c0.1,0,0.1,0.1,0.1,0.1S2.1,4.8,2,4.8z M2.5,4.8
	c-0.1,0-0.1-0.1-0.1-0.1c0-0.1,0.1-0.1,0.1-0.1c0.1,0,0.1,0.1,0.1,0.1C2.6,4.8,2.6,4.8,2.5,4.8z M2.5,4.2H0.6
	c-0.1,0-0.1-0.1-0.1-0.1S0.6,4,0.6,4h1.9C2.6,4,2.6,4,2.6,4.1S2.6,4.2,2.5,4.2z M2.5,3.7H0.6c-0.1,0-0.1-0.1-0.1-0.1
	s0.1-0.1,0.1-0.1h1.9c0.1,0,0.1,0.1,0.1,0.1S2.6,3.7,2.5,3.7z M4.4,4.7c0,0.1-0.1,0.2-0.2,0.2H3.1C3,4.9,3,4.8,3,4.7V3.5
	C3,3.5,3,3.4,3.1,3.4h1.1c0.1,0,0.2,0.1,0.2,0.2V4.7z"/>
<path class="st2" d="M4.9,4.9c0,0.1,0.1,0.3,0.3,0.3c0.1,0,0.3-0.1,0.3-0.3v-4H4.9V4.9z"/>
<rect x="0.8" y="0.9" class="st3" width="1.7" height="0.8"/>
<path d="M5.5,0.6H4.9c0,0,0-0.4,0-0.4C4.9,0.1,4.8,0,4.7,0H0.2C0.1,0,0,0.1,0,0.2v4.5c0,0.4,0.3,0.7,0.7,0.7h4.5
	c0.3,0,0.5-0.2,0.5-0.5V0.8C5.7,0.7,5.6,0.6,5.5,0.6z M0.7,5.2C0.5,5.2,0.3,5,0.3,4.7V0.3h4.4c0,1.5,0,3.1,0,4.6
	c0,0.1,0,0.2,0.1,0.3H0.7z M5.5,4.9c0,0.1-0.1,0.3-0.3,0.3C5,5.2,4.9,5.1,4.9,4.9v-4h0.5V4.9z"/>
<path d="M0.7,2h1.8c0.1,0,0.2-0.1,0.2-0.2v-1c0-0.1-0.1-0.2-0.2-0.2H0.7c-0.1,0-0.2,0.1-0.2,0.2v1C0.5,1.9,0.6,2,0.7,2z M0.8,0.9
	h1.7v0.8H0.8V0.9z"/>
<path d="M4.3,3.4H3.1C3,3.4,3,3.5,3,3.5v1.1C3,4.8,3,4.9,3.1,4.9h1.1c0.1,0,0.2-0.1,0.2-0.2V3.5C4.4,3.5,4.3,3.4,4.3,3.4z M4.2,4.6
	H3.2V3.6h0.9V4.6z"/>
<path d="M3.5,0.9h0.7c0.1,0,0.1-0.1,0.1-0.1c0-0.1-0.1-0.1-0.1-0.1H3.5c-0.1,0-0.1,0.1-0.1,0.1C3.4,0.8,3.5,0.9,3.5,0.9z"/>
<path d="M3,2h1.2c0.1,0,0.1-0.1,0.1-0.1c0-0.1-0.1-0.1-0.1-0.1H3C3,1.7,2.9,1.8,2.9,1.8C2.9,1.9,3,2,3,2z"/>
<path d="M3,1.4h1.2c0.1,0,0.1-0.1,0.1-0.1S4.3,1.2,4.3,1.2H3C3,1.2,2.9,1.2,2.9,1.3S3,1.4,3,1.4z"/>
<path d="M4.3,2.3H0.6c-0.1,0-0.1,0.1-0.1,0.1c0,0.1,0.1,0.1,0.1,0.1h3.6c0.1,0,0.1-0.1,0.1-0.1C4.4,2.3,4.3,2.3,4.3,2.3z"/>
<path d="M4.3,2.8H0.6C0.6,2.8,0.5,2.9,0.5,3c0,0.1,0.1,0.1,0.1,0.1h3.6C4.3,3.1,4.4,3,4.4,3C4.4,2.9,4.3,2.8,4.3,2.8z"/>
<path d="M2.5,3.4H0.6c-0.1,0-0.1,0.1-0.1,0.1s0.1,0.1,0.1,0.1h1.9c0.1,0,0.1-0.1,0.1-0.1S2.6,3.4,2.5,3.4z"/>
<path d="M2.5,4H0.6C0.6,4,0.5,4,0.5,4.1s0.1,0.1,0.1,0.1h1.9c0.1,0,0.1-0.1,0.1-0.1S2.6,4,2.5,4z"/>
<path d="M2,4.6H0.6c-0.1,0-0.1,0.1-0.1,0.1s0.1,0.1,0.1,0.1H2c0.1,0,0.1-0.1,0.1-0.1S2.1,4.6,2,4.6z"/>
<path d="M2.5,4.6c-0.1,0-0.1,0.1-0.1,0.1c0,0.1,0.1,0.1,0.1,0.1c0.1,0,0.1-0.1,0.1-0.1C2.6,4.6,2.6,4.6,2.5,4.6z"/>
</svg>
