<?xml version="1.0" encoding="UTF-8"?>
<svg width="317px" height="455px" viewBox="0 0 317 455" version="1.1" xmlns="http://www.w3.org/2000/svg" xmlns:xlink="http://www.w3.org/1999/xlink">
    <!-- Generator: Sketch 43.2 (39069) - http://www.bohemiancoding.com/sketch -->
    <title>Image_1 Copy</title>
    <desc>Created with Sketch.</desc>
    <defs></defs>
    <g id="Cardsmobile.ru" stroke="none" stroke-width="1" fill="none" fill-rule="evenodd">
        <g id="Desktop_5" transform="translate(-108.000000, -22.000000)">
            <g id="Image_1" transform="translate(108.000000, 22.000000)">
                <g id="Group-13">
                    <path d="M172.323,58.375 C172.323,58.755 172.014,59.064 171.634,59.064 L145.254,59.064 C144.874,59.064 144.565,58.755 144.565,58.375 L144.565,57.196 C144.565,56.816 144.874,56.507 145.254,56.507 L171.634,56.507 C172.014,56.507 172.323,56.816 172.323,57.196 L172.323,58.375 Z M171.634,55.757 L145.254,55.757 C144.459,55.757 143.815,56.401 143.815,57.196 L143.815,58.375 C143.815,59.17 144.459,59.814 145.254,59.814 L171.634,59.814 C172.429,59.814 173.073,59.17 173.073,58.375 L173.073,57.196 C173.073,56.401 172.429,55.757 171.634,55.757 L171.634,55.757 Z" id="Fill-9" fill="#251631"></path>
                    <path d="M40.875,226.174 C40.875,225.431 41.48,224.826 42.223,224.826 L43.064,224.826 L43.064,258.431 L42.223,258.431 C41.48,258.431 40.875,257.826 40.875,257.083 L40.875,226.174 Z M42.223,196.16 C41.48,196.16 40.875,195.555 40.875,194.812 L40.875,127.554 C40.875,126.811 41.48,126.206 42.223,126.206 L43.064,126.206 L43.064,196.16 L42.223,196.16 Z M273.824,197.456 L274.776,197.456 C275.52,197.456 276.125,198.061 276.125,198.804 L276.125,229.713 C276.125,230.456 275.52,231.061 274.776,231.061 L273.824,231.061 L273.824,197.456 Z M42.223,259.181 L43.064,259.181 L43.064,453.134 C43.064,453.76 43.083,454.382 43.117,455 L43.869,455 C43.835,454.382 43.814,453.76 43.814,453.134 L43.814,74.032 C43.814,55.68 58.744,40.75 77.096,40.75 L239.792,40.75 C258.144,40.75 273.074,55.68 273.074,74.032 L273.074,453.134 C273.074,453.76 273.053,454.382 273.019,455 L273.771,455 C273.805,454.382 273.824,453.76 273.824,453.134 L273.824,231.811 L274.776,231.811 C275.934,231.811 276.875,230.869 276.875,229.713 L276.875,198.804 C276.875,197.647 275.934,196.706 274.776,196.706 L273.824,196.706 L273.824,74.032 C273.824,55.237 258.588,40 239.792,40 L77.096,40 C58.3,40 43.064,55.237 43.064,74.032 L43.064,125.456 L42.223,125.456 C41.066,125.456 40.125,126.397 40.125,127.554 L40.125,194.812 C40.125,195.969 41.066,196.91 42.223,196.91 L43.064,196.91 L43.064,224.076 L42.223,224.076 C41.066,224.076 40.125,225.017 40.125,226.174 L40.125,257.083 C40.125,258.239 41.066,259.181 42.223,259.181 L42.223,259.181 Z" id="Fill-11" fill="#251631"></path>
                    <path d="M51.2150404,454.616 C51.083038,454.22 50.9950364,453.805 50.9950364,453.366 L50.9950364,74.993 C50.9950364,72.788 52.7890691,70.995 54.9931093,70.995 L262.606897,70.995 C264.810937,70.995 266.60497,72.788 266.60497,74.993 L266.60497,453.366 C266.60497,453.805 266.516968,454.22 266.384966,454.616 L268.467004,454.616 C268.553005,454.212 268.600006,453.795 268.600006,453.366 L268.600006,74.993 C268.600006,71.683 265.916957,69 262.606897,69 L54.9931093,69 C51.6830489,69 49,71.683 49,74.993 L49,453.366 C49,453.795 49.0480009,454.212 49.1330024,454.616 L51.2150404,454.616" id="Fill-12" fill-opacity="0.5" fill="#23272A" style="mix-blend-mode: multiply;"></path>
                    <path d="M80.515,60.171 C79.2,60.171 78.13,59.101 78.13,57.786 C78.13,56.471 79.2,55.401 80.515,55.401 C81.83,55.401 82.9,56.471 82.9,57.786 C82.9,59.101 81.83,60.171 80.515,60.171 Z M80.515,54.651 C78.784,54.651 77.38,56.054 77.38,57.786 C77.38,59.517 78.784,60.921 80.515,60.921 C82.246,60.921 83.65,59.517 83.65,57.786 C83.65,56.054 82.246,54.651 80.515,54.651 L80.515,54.651 Z" id="Fill-1" fill="#251631"></path>
                    <path d="M111.718,60.171 C110.403,60.171 109.333,59.101 109.333,57.786 C109.333,56.471 110.403,55.401 111.718,55.401 C113.033,55.401 114.103,56.471 114.103,57.786 C114.103,59.101 113.033,60.171 111.718,60.171 Z M111.718,54.651 C109.987,54.651 108.583,56.054 108.583,57.786 C108.583,59.517 109.987,60.921 111.718,60.921 C113.45,60.921 114.853,59.517 114.853,57.786 C114.853,56.054 113.45,54.651 111.718,54.651 L111.718,54.651 Z" id="Fill-2" fill="#251631"></path>
                    <path d="M223.281,60.171 C221.966,60.171 220.896,59.101 220.896,57.786 C220.896,56.471 221.966,55.401 223.281,55.401 C224.596,55.401 225.666,56.471 225.666,57.786 C225.666,59.101 224.596,60.171 223.281,60.171 Z M223.281,54.651 C221.55,54.651 220.146,56.054 220.146,57.786 C220.146,59.517 221.55,60.921 223.281,60.921 C225.012,60.921 226.416,59.517 226.416,57.786 C226.416,56.054 225.012,54.651 223.281,54.651 L223.281,54.651 Z" id="Fill-3" fill="#251631"></path>
                    <path d="M124.256,60.171 C122.941,60.171 121.871,59.101 121.871,57.786 C121.871,56.471 122.941,55.401 124.256,55.401 C125.571,55.401 126.641,56.471 126.641,57.786 C126.641,59.101 125.571,60.171 124.256,60.171 Z M124.256,54.651 C122.525,54.651 121.121,56.054 121.121,57.786 C121.121,59.517 122.525,60.921 124.256,60.921 C125.988,60.921 127.391,59.517 127.391,57.786 C127.391,56.054 125.988,54.651 124.256,54.651 L124.256,54.651 Z" id="Fill-4" fill="#251631"></path>
                    <path d="M93.976,59.986 C92.661,59.986 91.591,58.916 91.591,57.601 C91.591,56.286 92.661,55.216 93.976,55.216 C95.291,55.216 96.361,56.286 96.361,57.601 C96.361,58.916 95.291,59.986 93.976,59.986 Z M93.976,54.466 C92.245,54.466 90.841,55.87 90.841,57.601 C90.841,59.333 92.245,60.736 93.976,60.736 C95.708,60.736 97.111,59.333 97.111,57.601 C97.111,55.87 95.708,54.466 93.976,54.466 L93.976,54.466 Z" id="Fill-5" fill="#251631"></path>
                    <path d="M93.976,62.26 C91.407,62.26 89.317,60.17 89.317,57.601 C89.317,55.032 91.407,52.942 93.976,52.942 C96.545,52.942 98.635,55.032 98.635,57.601 C98.635,60.17 96.545,62.26 93.976,62.26 Z M93.976,52.192 C90.989,52.192 88.567,54.614 88.567,57.601 C88.567,60.589 90.989,63.01 93.976,63.01 C96.964,63.01 99.385,60.589 99.385,57.601 C99.385,54.614 96.964,52.192 93.976,52.192 L93.976,52.192 Z" id="Fill-6" fill="#251631"></path>
                    <path d="M203.989,59.986 C202.674,59.986 201.604,58.916 201.604,57.601 C201.604,56.286 202.674,55.216 203.989,55.216 C205.304,55.216 206.374,56.286 206.374,57.601 C206.374,58.916 205.304,59.986 203.989,59.986 Z M203.989,54.466 C202.257,54.466 200.854,55.87 200.854,57.601 C200.854,59.333 202.257,60.736 203.989,60.736 C205.72,60.736 207.124,59.333 207.124,57.601 C207.124,55.87 205.72,54.466 203.989,54.466 L203.989,54.466 Z" id="Fill-7" fill="#251631"></path>
                    <path d="M203.989,62.26 C201.42,62.26 199.33,60.17 199.33,57.601 C199.33,55.032 201.42,52.942 203.989,52.942 C206.558,52.942 208.648,55.032 208.648,57.601 C208.648,60.17 206.558,62.26 203.989,62.26 Z M203.989,52.192 C201.001,52.192 198.58,54.614 198.58,57.601 C198.58,60.589 201.001,63.01 203.989,63.01 C206.976,63.01 209.398,60.589 209.398,57.601 C209.398,54.614 206.976,52.192 203.989,52.192 L203.989,52.192 Z" id="Fill-8" fill="#251631"></path>
                </g>
            </g>
        </g>
    </g>
</svg>