<?xml version="1.0" encoding="utf-8"?>
<!-- Generator: Adobe Illustrator 22.0.1, SVG Export Plug-In . SVG Version: 6.00 Build 0)  -->
<svg version="1.1"
	 id="svg2" xmlns:cc="http://creativecommons.org/ns#" xmlns:dc="http://purl.org/dc/elements/1.1/" xmlns:rdf="http://www.w3.org/1999/02/22-rdf-syntax-ns#" xmlns:svg="http://www.w3.org/2000/svg"
	 xmlns="http://www.w3.org/2000/svg" xmlns:xlink="http://www.w3.org/1999/xlink" x="0px" y="0px" viewBox="0 0 841.9 595.3"
	 style="enable-background:new 0 0 841.9 595.3;" xml:space="preserve">
<style type="text/css">
	.st0{fill:#950A2A;}
	.st1{fill:#0A2957;}
</style>
<path id="path6" class="st0" d="M332,265.6c-16,0-21.5,2.5-26.4,7.3c-5,4.9-7.4,10.5-7.4,16.8c0,6.3,2.3,11.9,6.8,16.7
	c4.5,4.9,10.2,7.3,17.1,7.3c5.2,0,7.8,1.9,7.8,5.5c0,1.4-0.5,2.6-1.5,3.5c-1,1-2.2,1.5-3.5,1.5h-27.1v18.7h28.7
	c6.4,0,11.9-2.2,16.6-6.6c5-4.7,7.4-10.5,7.4-17.5c0-7-2.5-12.9-7.4-17.5c-4.6-4.3-10-6.5-16.3-6.5c-5.3,0-8-1.9-8-5.6
	c0-1.4,0.5-2.6,1.6-3.6c1.1-1,2.3-1.5,3.6-1.5h57.4v58.7h20.6v-58.7h36.7l20.6-18.7L332,265.6L332,265.6z M783.1,265.6v78.8
	l-53.5-48.1v46.7h-20.6v-61.5l17.7-15.9l35.7,32.5v-32.5L783.1,265.6L783.1,265.6z M696.4,263.7v79.4h-20.6v-60.8L696.4,263.7
	L696.4,263.7z M650.3,265.6h28.3L640,302.5l17.1,15.6v26.8l-32.2-28.7l-9.3,8.5v18.5h-20.6v-60.6l20.6-18.7v33.5L650.3,265.6
	L650.3,265.6z M583.2,265.6v78.8l-53.5-48.1v46.7h-20.6v-61.5l17.7-15.9l35.7,32.5v-32.5L583.2,265.6L583.2,265.6z M496.3,265.6
	v77.4h-20.6v-10.6h-36.9l20.7-18.9h16.2v-20.5l-57.4,51.6v-27.3l57.4-51.9L496.3,265.6L496.3,265.6z"/>
<path id="path8" class="st1" d="M460.6,126.5c2.7,0.3,5.5,0.7,8.2,1.2l41.1-6.2l1.3-8.5c-26.8-12.8-59-14.8-87.9-12.8
	c-10.3,0.7-20.5,2-30.6,3.7h-39.1c0,0-6.4,8.8-17.9,22.8V104l-53.3-43.9l-30.2,69v2.1l-47.4-13.3L176,131.1v75.3
	c-32.1,25.8-60.8,55.8-82.5,90.3C77.5,322,65.9,349.8,65,380l1.4,14.7c0,0,1.2,11.6,9.7,26.5c8.5,15,17.6,21.8,17.6,21.8
	c16.1,13.9,39,21.4,59.6,23.9c27.3,3.3,55.1,1.9,82.2-3c52.1-9.3,102.3-29.1,148.3-55.5l11.8-7.5h-39.4l-13.6,7.5
	c-6.6,3.4-13.3,6.7-20,9.9c-52,24.4-110.1,41.6-168.1,37.9c-19.5-1.2-40.7-6.8-57-18.1c0,0-13.1-6.6-19.6-18
	c-6.5-11.4-6.3-26-6.3-26l0.1-13.8c5.1-42,30.1-78.6,58.2-109c14.2-15.3,29.6-29.6,46-42.8l0,176.4h29.5l-0.6-268.3l47.4,13.2v255.1
	h29.9l0.2-315.5l53.3,43.2v127.5h18.2l-0.3-139.7h43v139.7h9.2V127C423.9,125,442.3,124.7,460.6,126.5L460.6,126.5z M560.6,179
	c-0.5-3.7-1.4-7.4-2.5-10.9l-29.3-13l-4.3,4.6c0.5,0.6,0.9,1.2,1.4,1.8c0.1,0.2,0.2,0.3,0.3,0.5c4.4,11,8.6,20.2,7.8,32.5
	c-1.3,19.4-7.4,37.8-16.2,55.1l28.8,0.3C557.1,227.6,563.7,203.3,560.6,179z"/>
<path id="path10" class="st0" d="M519.2,91.1l14.4,31.4l44.7-6.3L541.9,138l12.4,24.2l-26.7-11.8l-28.5,30.5l11.3-38.4l-72.5-4.3
	l76.2-12.9L519.2,91.1L519.2,91.1z"/>
<g>
	<path class="st0" d="M339,363.6l11.5-11.6v42.1H339V363.6z"/>
	<path class="st0" d="M353.3,363.6l11.5-11.6v42.1h-11.5V363.6z M392.1,394l-29.2-29l1.9-13l15,15.2V352h12.3V394z"/>
	<path class="st0" d="M395.4,363.6l11.5-11.6v10.9v10v21.2h-11.5V363.6z M406.9,362.9V352h25.8l-10.9,10.9H406.9z M406.9,368h15
		v10.3h-15V368z"/>
	<path class="st0" d="M468.2,372.9c0,6.8-2.1,12.1-6.4,15.9c-4.3,3.8-9.3,5.7-15.2,5.7c-5.8,0-10.9-1.9-15.2-5.7
		c-4.3-3.8-6.4-9.1-6.4-15.9c0-6.7,2.1-12,6.4-15.8c4.3-3.8,9.3-5.7,15.2-5.7s10.4,1.4,13.6,4.3c3.2,2.8,5.3,5.6,6.4,8.2
		C467.7,366.3,468.2,369.4,468.2,372.9z M435.9,372.9c0,3.3,1,5.9,3.1,7.7c2.1,1.9,4.6,2.8,7.5,2.8c2.8,0,5.3-0.9,7.4-2.8
		c2.1-1.8,3.1-4.4,3.1-7.8c0-3.3-1-5.9-3.1-7.8c-2.1-1.9-4.6-2.8-7.5-2.8c-2.8,0-5.3,0.9-7.4,2.7S435.9,369.5,435.9,372.9z"/>
</g>
</svg>
